<?xml version="1.0" encoding="UTF-8" standalone="no"?>
<!DOCTYPE svg PUBLIC "-//W3C//DTD SVG 1.1//EN" "http://www.w3.org/Graphics/SVG/1.1/DTD/svg11.dtd">
<svg width="100%" height="100%" viewBox="0 0 123 142" version="1.1" xmlns="http://www.w3.org/2000/svg" xmlns:xlink="http://www.w3.org/1999/xlink" xml:space="preserve" xmlns:serif="http://www.serif.com/" style="fill-rule:evenodd;clip-rule:evenodd;stroke-linecap:round;stroke-linejoin:round;stroke-miterlimit:2;">
    <g transform="matrix(1,0,0,1,-197.967,-292.265)">
        <g id="Color" transform="matrix(1,0,0,1,-408.913,0)">
            <g id="E" transform="matrix(1,0,0,1,81.1211,3.63672)">
                <g transform="matrix(0.491847,0,0,0.491847,373.344,133.883)">
                    <path d="M499.885,412.318C487.45,399.883 470.585,392.897 452.999,392.897C416.403,392.897 386.691,422.608 386.691,459.204C386.691,495.801 416.403,525.512 452.999,525.512C470.585,525.512 487.45,518.526 499.885,506.091L490.508,496.714C480.56,506.662 467.068,512.25 452.999,512.25C423.722,512.25 399.953,488.481 399.953,459.204C399.953,429.928 423.722,406.158 452.999,406.158C467.068,406.158 480.56,411.747 490.508,421.695L499.885,412.318Z" style="fill:rgb(0,217,240);stroke:rgb(0,217,240);stroke-width:17.28px;"/>
                </g>
                <g transform="matrix(0.484681,0,0,1.57143,394.376,-38.3144)">
                    <path d="M417.812,250.857C417.812,249.505 414.252,248.407 409.866,248.407L353.66,248.407C349.275,248.407 345.714,249.505 345.714,250.857L345.714,255.759C345.714,257.111 349.275,258.209 353.66,258.209L409.866,258.209C414.252,258.209 417.812,257.111 417.812,255.759L417.812,250.857Z" style="fill:rgb(0,217,240);stroke:rgb(0,217,240);stroke-width:0.86px;"/>
                </g>
            </g>
            <g id="T" transform="matrix(1,0,0,1,81.1211,3.63672)">
                <g transform="matrix(1,0,0,1,143.883,-99.4633)">
                    <path d="M452.999,392.897C416.378,392.897 386.691,422.584 386.691,459.204C386.691,495.801 416.403,525.512 452.999,525.512C470.585,525.512 487.45,518.526 499.885,506.091L495.197,501.402C484.005,512.594 468.826,518.881 452.999,518.881C420.062,518.881 393.322,492.141 393.322,459.204C393.322,426.246 420.04,399.528 452.999,399.528L452.999,392.897Z" style="fill:rgb(0,217,240);stroke:rgb(0,217,240);stroke-width:8.5px;"/>
                </g>
                <g transform="matrix(1.68881,0,0,1.57143,-57.5866,-101.225)">
                    <path d="M417.812,250.857C417.812,249.505 416.79,248.407 415.532,248.407L347.995,248.407C346.736,248.407 345.714,249.505 345.714,250.857L345.714,255.759C345.714,257.111 346.736,258.209 347.995,258.209L415.532,258.209C416.79,258.209 417.812,257.111 417.812,255.759L417.812,250.857Z" style="fill:rgb(0,217,240);stroke:rgb(0,217,240);stroke-width:0.61px;"/>
                </g>
            </g>
        </g>
    </g>
</svg>
